<svg xmlns="http://www.w3.org/2000/svg" fill="#000000" class="bi bi-copy" viewBox="0 0 16 16" id="Copy--Streamline-Bootstrap" height="16" width="16">
  <desc>
    Copy Streamline Icon: https://streamlinehq.com
  </desc>
  <path fill-rule="evenodd" d="M4 2a2 2 0 0 1 2 -2h8a2 2 0 0 1 2 2v8a2 2 0 0 1 -2 2H6a2 2 0 0 1 -2 -2zm2 -1a1 1 0 0 0 -1 1v8a1 1 0 0 0 1 1h8a1 1 0 0 0 1 -1V2a1 1 0 0 0 -1 -1zM2 5a1 1 0 0 0 -1 1v8a1 1 0 0 0 1 1h8a1 1 0 0 0 1 -1v-1h1v1a2 2 0 0 1 -2 2H2a2 2 0 0 1 -2 -2V6a2 2 0 0 1 2 -2h1v1z" stroke-width="1"></path>
</svg>